PathFileType	4	(X/Y/Z)	stereocamera_test1.trc
DataRate	CameraRate	NumFrames	NumMarkers	Units	OrigDataRate	OrigDataStartFrame	OrigNumFrames
28.773259820813234	28.773259820813234	14	15	mm	28.773259820813234	168	335
Frame#	Time	JOINT_NECK			JOINT_RIGHT_CLAVICLE			JOINT_LEFT_CLAVICLE			JOINT_RIGHT_SHOULDER			JOINT_LEFT_SHOULDER			JOINT_RIGHT_ELBOW			JOINT_LEFT_ELBOW			JOINT_LEFT_WRIST			JOINT_RIGHT_WRIST			JOINT_SPINE_3			JOINT_SPINE_2			JOINT_SPINE_1			JOINT_PELVIS			JOINT_RIGHT_HIP			JOINT_LEFT_HIP
		X1	Y1	Z1	X2	Y2	Z2	X3	Y3	Z3	X4	Y4	Z4	X5	Y5	Z5	X6	Y6	Z6	X7	Y7	Z7	X8	Y8	Z8	X9	Y9	Z9	X10	Y10	Z10	X11	Y11	Z11	X12	Y12	Z12	X13	Y13	Z13	X14	Y14	Z14	X15	Y15	Z15

168	1749651076.800000	158.308400	1.489535	894.483270	86.563535	-3.416136	945.865750	233.061630	7.002369	894.553800	7.367639	-7.528931	949.349700	296.178900	10.555267	856.109860	-135.524880	-158.560290	912.710000	336.315800	-158.098700	635.889350	113.699384	-80.523970	601.632540	-120.023080	-126.091480	806.648100	118.209235	-79.534790	695.321700	145.409930	-184.179470	817.908900	145.048860	-274.908420	813.173350	137.179500	-344.948650	769.949440	29.506609	-353.809900	859.015350	nan	nan	nan
169	1749651076.833000	157.914280	-1.110002	897.213000	88.858980	-3.628939	945.532740	232.126640	4.165620	894.354640	9.982858	-9.449944	968.225840	293.681110	8.279622	855.782300	-154.826000	-148.111160	947.969140	339.500600	-162.547500	640.524600	105.841500	-90.739205	607.131400	-125.016660	-138.409700	827.317060	136.357640	-86.823426	807.256100	147.809450	-176.246180	830.274100	148.220000	-260.812220	819.732900	142.423810	-332.287000	789.160300	nan	nan	nan	nan	nan	nan
170	1749651076.866000	159.987170	-2.768621	897.615700	90.485500	-3.709868	946.333650	231.636700	2.306089	894.537100	13.946193	-9.082079	980.492400	292.660600	5.256325	855.339050	-159.336220	-146.123110	972.593550	343.128170	-167.707640	645.930800	103.884220	-104.536474	612.790000	-124.367880	-153.577280	819.301800	148.430290	-98.584360	865.178700	146.917250	-185.339510	838.776050	143.891450	-268.857180	813.460600	138.242870	-336.932360	780.905840	nan	nan	nan	nan	nan	nan
171	1749651076.900000	161.181430	-2.872705	898.820300	91.513300	-4.041076	947.166440	231.645150	0.904784	895.574450	16.209299	-8.245289	987.180800	292.574880	3.188819	855.605840	-164.436580	-149.260210	989.266160	347.075580	-172.458710	649.596330	105.617300	-119.091615	618.629630	-124.701720	-169.118800	810.610000	154.363960	-104.547690	890.198000	143.974920	-185.826020	817.540700	140.248420	-277.685640	808.088960	136.267420	-361.633120	798.388800	37.321810	-343.872760	841.019150	nan	nan	nan
172	1749651076.934000	161.628840	-3.477588	900.923400	92.084850	-4.127428	948.382560	231.901690	0.295311	896.857860	16.719991	-8.708104	991.271700	292.837560	1.589835	857.247100	-164.701740	-152.736510	999.966600	351.877300	-175.649500	652.288300	112.661320	-129.988180	624.338600	-126.030850	-180.343600	807.458340	157.779740	-107.877955	901.138000	137.016460	-180.737670	771.069600	140.237700	-279.307750	805.931600	137.428760	-369.592580	802.561500	45.203440	-341.375170	838.988500	nan	nan	nan
173	1749651076.967000	160.691630	-5.113110	903.446850	89.661784	-6.757498	950.138700	232.028840	-2.348706	897.074700	13.404261	-11.063591	993.704400	293.719830	-0.016227	858.875750	-166.468250	-157.836850	1005.775000	357.267770	-177.442340	653.515040	123.780280	-137.383120	629.933200	-125.156720	-188.397850	807.191400	159.158470	-109.380830	901.845750	127.326180	-168.635160	713.831100	140.555140	-278.173570	806.333240	137.635810	-364.923300	794.909500	45.148067	-335.947160	837.354000	nan	nan	nan
174	1749651077.000000	159.808040	-5.131811	895.268860	90.515226	-8.385837	949.374800	234.676110	-1.443073	896.820700	11.057041	-11.689335	994.210500	296.422840	0.143632	858.740150	-168.112920	-161.539840	1008.975300	365.343100	-177.210900	656.537600	135.358400	-139.364960	635.347660	-119.924520	-193.648350	805.586500	156.477290	-111.821650	897.250950	132.410960	-183.966600	775.346600	133.906440	-285.547500	806.593540	130.299340	-367.107100	782.214050	29.908108	-345.467270	859.788060	nan	nan	nan
175	1749651077.034000	159.577340	-5.784288	899.659000	88.589540	-9.461120	951.066730	236.435800	-0.714287	896.615270	7.127321	-14.386311	992.895840	298.637100	1.154780	859.714800	-164.523270	-164.556520	1011.047200	372.662960	-173.907030	658.608200	144.375730	-135.017590	640.419900	-119.834910	-192.661460	811.756900	156.785700	-103.343755	893.396260	125.568930	-164.354130	739.448250	135.066230	-269.604680	814.800000	130.257070	-346.174930	796.550400	38.520984	-340.870020	855.538250	nan	nan	nan
176	1749651077.067000	157.046970	-6.858453	899.707500	84.534965	-12.398228	951.307900	235.217600	-0.020459	898.094360	0.980560	-19.959852	993.236800	301.684560	3.938660	867.941260	-164.550050	-165.907310	1016.399300	375.489860	-171.403260	659.836770	148.214890	-121.741150	644.034300	-119.179815	-184.271440	826.497300	150.009380	-98.227440	862.804350	127.899100	-168.246310	802.866800	127.763210	-258.773700	825.588300	118.991580	-334.315360	808.915100	18.062267	-344.627470	871.042800	nan	nan	nan
177	1749651077.101000	154.903780	-1.873598	898.150700	82.171870	-6.499097	954.567400	235.005450	5.357042	902.653000	-0.720697	-14.408559	1004.374900	299.308200	8.525908	866.596200	-173.505620	-176.149380	1013.855800	375.810500	-169.580010	660.608500	135.894490	-93.666150	646.464900	-108.524050	-172.472060	846.110700	141.093920	-87.312400	809.941400	135.564430	-169.244050	834.922600	132.365140	-251.450780	828.006150	123.304494	-327.521500	808.092530	32.141387	-345.180720	863.482300	nan	nan	nan
178	1749651077.134000	150.700720	-1.486361	858.645600	81.967660	-6.012380	909.856200	236.391810	4.023641	900.588150	6.724252	-13.127044	1004.121400	299.401400	7.278219	865.677830	-175.074740	-192.005350	986.969350	372.445900	-168.521850	656.817800	135.278200	-57.524897	647.824470	-109.079740	-153.258070	833.306500	146.061150	-82.855070	808.569550	146.844630	-166.620170	843.582750	144.780070	-244.807620	825.424800	140.396740	-318.368460	807.877100	nan	nan	nan	nan	nan	nan
179	1749651077.168000	149.827540	4.742548	857.987400	86.409755	-2.079457	926.512300	233.360600	12.432411	904.618440	9.146401	-11.011094	936.557800	285.814080	14.431894	829.497640	-161.975010	-191.105810	906.858740	367.026450	-167.163460	657.340170	132.723800	-8.806907	647.561200	-111.508790	-132.627830	838.481600	148.844000	-79.977560	835.023600	149.849600	-164.303420	853.022400	146.449910	-242.257710	825.284960	143.305810	-316.458100	808.732300	40.754690	-342.582230	866.871300	248.254500	-330.723760	815.565760
180	1749651077.201000	155.493890	3.418803	870.176700	89.268950	-5.023375	935.818500	230.961440	12.230545	878.692870	9.937698	-12.779042	955.089330	278.369800	14.613003	787.343700	-157.958360	-206.056790	918.672560	361.671270	-172.299030	656.589100	146.779080	30.846052	644.188340	-112.896760	-106.551420	831.000000	150.917040	-81.255760	857.345500	146.630050	-165.928990	858.776000	140.283330	-242.406490	828.092460	133.518890	-317.566930	812.670800	29.686235	-343.097800	869.444700	218.062460	-322.533200	797.497030
181	1749651077.234000	154.973060	2.576843	882.177300	88.406640	-4.440695	944.391500	224.515740	7.671326	869.614060	10.807157	-8.431554	971.143500	255.669000	10.189980	734.162300	-149.901480	-208.031760	904.231670	356.328730	-181.195350	655.818340	175.890850	41.470587	638.771100	-115.102770	-83.228380	837.670450	152.299140	-82.833970	870.834600	148.599670	-164.880400	858.622300	142.036660	-239.979800	824.686000	137.434350	-316.283700	811.838870	45.649170	-335.532000	857.053300	219.177280	-317.752540	801.530800
